<?xml version="1.0" encoding="UTF-8"?>
<svg xmlns="http://www.w3.org/2000/svg" xmlns:xlink="http://www.w3.org/1999/xlink" viewBox="0 0 36 36" width="36px" height="36px">
<g id="surface4820723">
<path style=" stroke:none;fill-rule:nonzero;fill:rgb(20.392157%,59.607846%,85.882354%);fill-opacity:1;" d="M 16.875 4.5 C 16.285156 4.5 15.683594 4.707031 15.257812 5.132812 C 14.832031 5.558594 14.625 6.160156 14.625 6.75 L 14.625 7.875 L 7.875 7.875 L 7.875 10.125 L 9 10.125 L 9 28.125 C 9 29.976562 10.523438 31.5 12.375 31.5 L 25.875 31.5 C 27.726562 31.5 29.25 29.976562 29.25 28.125 L 29.25 10.125 L 30.375 10.125 L 30.375 7.875 L 23.625 7.875 L 23.625 6.75 C 23.625 6.160156 23.417969 5.558594 22.992188 5.132812 C 22.566406 4.707031 21.964844 4.5 21.375 4.5 Z M 16.875 6.75 L 21.375 6.75 L 21.375 7.875 L 16.875 7.875 Z M 11.25 10.125 L 27 10.125 L 27 28.125 C 27 28.75 26.5 29.25 25.875 29.25 L 12.375 29.25 C 11.75 29.25 11.25 28.75 11.25 28.125 Z M 13.5 13.5 L 13.5 25.875 L 15.75 25.875 L 15.75 13.5 Z M 18 13.5 L 18 25.875 L 20.25 25.875 L 20.25 13.5 Z M 22.5 13.5 L 22.5 25.875 L 24.75 25.875 L 24.75 13.5 Z M 22.5 13.5 "/>
</g>
</svg>
